<?xml version="1.0" encoding="UTF-8" standalone="no"?>
<svg
   xmlns:dc="http://purl.org/dc/elements/1.1/"
   xmlns:cc="http://creativecommons.org/ns#"
   xmlns:rdf="http://www.w3.org/1999/02/22-rdf-syntax-ns#"
   xmlns:svg="http://www.w3.org/2000/svg"
   xmlns="http://www.w3.org/2000/svg"
   xmlns:sodipodi="http://sodipodi.sourceforge.net/DTD/sodipodi-0.dtd"
   xmlns:inkscape="http://www.inkscape.org/namespaces/inkscape"
   version="1.1"
   id="Ladder_of_inference"
   x="0px"
   y="0px"
   width="1200"
   height="800"
   viewBox="0 0 1200 800"
   enable-background="new 0 0 600 800"
   xml:space="preserve"
   sodipodi:docname="ladder-of-inference.svg"
   inkscape:version="0.92.4 (5da689c313, 2019-01-14)"><metadata
   id="metadata4111"><rdf:RDF><cc:Work
       rdf:about=""><dc:format>image/svg+xml</dc:format><dc:type
         rdf:resource="http://purl.org/dc/dcmitype/StillImage" /><dc:title></dc:title></cc:Work></rdf:RDF></metadata><defs
   id="defs4109" /><sodipodi:namedview
   pagecolor="#ffffff"
   bordercolor="#666666"
   borderopacity="1"
   objecttolerance="10"
   gridtolerance="10"
   guidetolerance="10"
   inkscape:pageopacity="0"
   inkscape:pageshadow="2"
   inkscape:window-width="1920"
   inkscape:window-height="1017"
   id="namedview4107"
   showgrid="false"
   inkscape:zoom="1.03"
   inkscape:cx="627.44456"
   inkscape:cy="400"
   inkscape:window-x="0"
   inkscape:window-y="29"
   inkscape:window-maximized="1"
   inkscape:current-layer="Ladder_of_inference" />
<path
   d="m 817.05461,641.94802 c 70.467,-94.303 -550.457,-101.973 -389.68,38.434 3.994,97.233 411.561,83.347 389.68,-38.434 0,0 0.338,1.882 0,0 z"
   id="path3940"
   inkscape:connector-curvature="0"
   style="fill:#66ccff" />
<path
   stroke-miterlimit="10"
   d="m 688.29861,97.646019 c 0,0 0,-10 -10,-10 -10,0 -10,10 -10,10 l 1.053,30.000001 h -112.106 l 1.053,-30.000001 c 0,0 0,-10 -10,-10 -10,0 -10,10 -10,10 l -30,570.000001 c 0,0 0,10 15,10 15,0 15,-10 15,-10 l 1.403,-40 h 147.193 l 1.404,40 c 0,0 0,10 15,10 15,0 15,-10 15,-10 z m -13.529,184.422001 h -122.942 l 1.767,-50.366 h 119.407 z m 0.971,27.669 1.768,50.366 h -128.419 l 1.767,-50.366 z m 2.757,78.6 1.768,50.366 h -133.934 l 1.767,-50.366 z m 2.778,79.177 1.768,50.366 h -139.49 l 1.767,-50.366 z m -10.992,-313.295 1.768,50.366 h -117.506 l 1.768,-50.366 z m -129.529,443.427 1.768,-50.366 h 141.552 l 1.768,50.366 z"
   id="path3942"
   inkscape:connector-curvature="0"
   style="fill:#663333;stroke:#000000;stroke-width:2;stroke-miterlimit:10" />
<g
   id="g3952"
   transform="translate(310.67961,-15.533981)">
	<g
   id="g3950">
		<path
   stroke-miterlimit="10"
   d="M 168.33,602.849 C 144.993,565.152 130,506.552 130,440.739 c 0,-92.302 30,-157.56 70.13,-196.576"
   id="path3944"
   inkscape:connector-curvature="0"
   style="fill:none;stroke:#000000;stroke-width:6;stroke-miterlimit:10" />
		<g
   id="g3948">
			<polygon
   points="150.596,602.964 183.585,623.18 174.189,585.646 167.42,601.157 "
   id="polygon3946" />
		</g>
	</g>
</g>
<g
   id="g3962"
   transform="translate(310.67961,-15.533981)">
	<g
   id="g3960">
		
			<line
   stroke-miterlimit="10"
   x1="554.83197"
   y1="693.17999"
   x2="554.83197"
   y2="178.59801"
   id="line3954"
   style="fill:none;stroke:#000000;stroke-width:6;stroke-miterlimit:10" />
		<g
   id="g3958">
			<polygon
   points="540.2,188.997 554.832,153.18 569.468,188.997 554.832,180.498 "
   id="polygon3956" />
		</g>
	</g>
</g>
<rect
   x="440.67963"
   y="692.479"
   width="340"
   height="15.167"
   id="rect3964"
   style="fill:none" />
<text
   font-size="20"
   id="text3966"
   style="font-size:20px;font-family:LiberationSans;fill:#0000cc"
   x="458.88861"
   y="706.97089">POOL OF OBSERVABLE “DATA”</text>

<rect
   x="518.29865"
   y="605.06201"
   width="190"
   height="15.167"
   id="rect3968"
   style="fill:none" />
<text
   font-size="20"
   id="text3970"
   style="font-size:20px;font-family:LiberationSans-Bold;fill:#cccccc"
   x="532.73871"
   y="619.55389">OBSERVATIONS</text>

<rect
   x="518.29865"
   y="524.93701"
   width="190"
   height="15.167"
   id="rect3972"
   style="fill:none" />
<text
   font-size="20"
   id="text3974"
   style="font-size:20px;font-family:LiberationSans-Bold;fill:#cccccc"
   x="528.80664"
   y="539.42889">SELECTED DATA</text>

<rect
   x="518.29865"
   y="445.56204"
   width="190"
   height="15.167"
   id="rect3976"
   style="fill:none" />
<text
   font-size="20"
   id="text3978"
   style="font-size:20px;font-family:LiberationSans-Bold;fill:#cccccc"
   x="559.05664"
   y="460.05392">MEANINGS</text>

<rect
   x="518.29865"
   y="366.68704"
   width="190"
   height="15.167"
   id="rect3980"
   style="fill:none" />
<text
   font-size="20"
   id="text3982"
   style="font-size:20px;font-family:LiberationSans-Bold;fill:#cccccc"
   x="539.45844"
   y="381.17892">ASSUMPTIONS</text>

<rect
   x="518.29865"
   y="288.31204"
   width="190"
   height="15.167"
   id="rect3984"
   style="fill:none" />
<text
   font-size="20"
   id="text3986"
   style="font-size:20px;font-family:LiberationSans-Bold;fill:#cccccc"
   x="539.40674"
   y="302.80444">CONCLUSIONS</text>

<rect
   x="518.29865"
   y="210.56201"
   width="190"
   height="15.167"
   id="rect3988"
   style="fill:none" />
<text
   font-size="20"
   id="text3990"
   style="font-size:20px;font-family:LiberationSans-Bold;fill:#cccccc"
   x="570.77191"
   y="225.05441">BELIEFS</text>

<rect
   x="518.29865"
   y="133.31201"
   width="190"
   height="15.167"
   id="rect3992"
   style="fill:none" />
<text
   font-size="20"
   id="text3994"
   style="font-size:20px;font-family:LiberationSans-Bold;fill:#cccccc"
   x="567.99841"
   y="147.80392">ACTIONS</text>

<rect
   x="875.5116"
   y="312.64603"
   width="15.168"
   height="190"
   id="rect3996"
   style="fill:none" />
<text
   transform="rotate(-90)"
   font-size="20"
   id="text3998"
   style="font-size:20px;font-family:LiberationSans-Bold"
   x="-466.22873"
   y="890.00385">INFERENCE</text>

<rect
   x="330.67963"
   y="487.64603"
   width="120"
   height="120"
   id="rect4000"
   style="fill:none" />
<text
   id="text4014"
   x="330.67963"
   y="500.68875"><tspan
     x="330.67963"
     y="500.68875"
     font-size="18"
     id="tspan4002"
     style="font-size:18px;font-family:LiberationSans">Reflexive </tspan><tspan
     x="330.67963"
     y="520.68872"
     font-size="18"
     id="tspan4004"
     style="font-size:18px;font-family:LiberationSans">loop: our </tspan><tspan
     x="330.67963"
     y="540.68872"
     font-size="18"
     id="tspan4006"
     style="font-size:18px;font-family:LiberationSans">beliefs tend </tspan><tspan
     x="330.67963"
     y="560.68872"
     font-size="18"
     id="tspan4008"
     style="font-size:18px;font-family:LiberationSans">to affect what </tspan><tspan
     x="330.67963"
     y="580.68872"
     font-size="18"
     id="tspan4010"
     style="font-size:18px;font-family:LiberationSans">data we select </tspan><tspan
     x="330.67963"
     y="600.68872"
     font-size="18"
     id="tspan4012"
     style="font-size:18px;font-family:LiberationSans">next time</tspan></text>

<rect
   x="330.67963"
   y="87.646019"
   width="180"
   height="140"
   id="rect4016"
   style="fill:none" />
<text
   id="text4032"
   x="330.67963"
   y="100.68872"><tspan
     x="330.67963"
     y="100.68872"
     font-size="18"
     id="tspan4018"
     style="font-size:18px;font-family:LiberationSans">Instead of jumping to </tspan><tspan
     x="330.67963"
     y="120.68872"
     font-size="18"
     id="tspan4020"
     style="font-size:18px;font-family:LiberationSans">“CONCLUSIONS,” </tspan><tspan
     x="330.67963"
     y="140.68872"
     font-size="18"
     id="tspan4022"
     style="font-size:18px;font-family:LiberationSans">analyze and test </tspan><tspan
     x="330.67963"
     y="160.68872"
     font-size="18"
     id="tspan4024"
     style="font-size:18px;font-family:LiberationSans">the assumptions, </tspan><tspan
     x="330.67963"
     y="180.68872"
     font-size="18"
     id="tspan4026"
     style="font-size:18px;font-family:LiberationSans">meanings, selected </tspan><tspan
     x="330.67963"
     y="200.68872"
     font-size="18"
     id="tspan4028"
     style="font-size:18px;font-family:LiberationSans">data &amp; observations </tspan><tspan
     x="330.67963"
     y="220.68872"
     font-size="18"
     id="tspan4030"
     style="font-size:18px;font-family:LiberationSans">that created them</tspan></text>

<rect
   x="726.67963"
   y="557.646"
   width="120"
   height="40"
   id="rect4034"
   style="fill:none" />
<text
   id="text4040"
   x="726.67963"
   y="570.68872"><tspan
     x="726.67963"
     y="570.68872"
     font-size="18"
     id="tspan4036"
     style="font-size:18px;font-family:LiberationSans">Select from </tspan><tspan
     x="726.67963"
     y="590.68872"
     font-size="18"
     id="tspan4038"
     style="font-size:18px;font-family:LiberationSans">observations</tspan></text>

<rect
   x="723.34662"
   y="473.01004"
   width="120"
   height="60"
   id="rect4042"
   style="fill:none" />
<text
   id="text4050"
   x="723.34662"
   y="486.05295"><tspan
     x="723.34662"
     y="486.05295"
     font-size="18"
     id="tspan4044"
     style="font-size:18px;font-family:LiberationSans">Add meanings </tspan><tspan
     x="723.34662"
     y="506.05295"
     font-size="18"
     id="tspan4046"
     style="font-size:18px;font-family:LiberationSans">to selected </tspan><tspan
     x="723.34662"
     y="526.05292"
     font-size="18"
     id="tspan4048"
     style="font-size:18px;font-family:LiberationSans">observations</tspan></text>

<rect
   x="718.92963"
   y="388.37402"
   width="120"
   height="60"
   id="rect4052"
   style="fill:none" />
<text
   id="text4060"
   x="718.92963"
   y="401.41724"><tspan
     x="718.92963"
     y="401.41724"
     font-size="18"
     id="tspan4054"
     style="font-size:18px;font-family:LiberationSans">Make assump-</tspan><tspan
     x="718.92963"
     y="421.41724"
     font-size="18"
     id="tspan4056"
     style="font-size:18px;font-family:LiberationSans">tions based on </tspan><tspan
     x="718.92963"
     y="441.41724"
     font-size="18"
     id="tspan4058"
     style="font-size:18px;font-family:LiberationSans">our meanings</tspan></text>

<rect
   x="714.92963"
   y="303.73804"
   width="120"
   height="60"
   id="rect4062"
   style="fill:none" />
<text
   id="text4070"
   x="714.92963"
   y="316.78094"><tspan
     x="714.92963"
     y="316.78094"
     font-size="18"
     id="tspan4064"
     style="font-size:18px;font-family:LiberationSans">Draw conclu-</tspan><tspan
     x="714.92963"
     y="336.78094"
     font-size="18"
     id="tspan4066"
     style="font-size:18px;font-family:LiberationSans">sions from our </tspan><tspan
     x="714.92963"
     y="356.78094"
     font-size="18"
     id="tspan4068"
     style="font-size:18px;font-family:LiberationSans">assumptons</tspan></text>

<rect
   x="710.42963"
   y="219.10202"
   width="120"
   height="60"
   id="rect4072"
   style="fill:none" />
<text
   id="text4080"
   x="710.42963"
   y="232.14471"><tspan
     x="710.42963"
     y="232.14471"
     font-size="18"
     id="tspan4074"
     style="font-size:18px;font-family:LiberationSans">Adopt beliefs </tspan><tspan
     x="710.42963"
     y="252.14473"
     font-size="18"
     id="tspan4076"
     style="font-size:18px;font-family:LiberationSans">based on our </tspan><tspan
     x="710.42963"
     y="272.14474"
     font-size="18"
     id="tspan4078"
     style="font-size:18px;font-family:LiberationSans">conclusions</tspan></text>

<rect
   x="706.17963"
   y="134.46602"
   width="120"
   height="60"
   id="rect4082"
   style="fill:none" />
<text
   id="text4090"
   x="706.17963"
   y="147.50902"><tspan
     x="706.17963"
     y="147.50902"
     font-size="18"
     id="tspan4084"
     style="font-size:18px;font-family:LiberationSans">Take actions </tspan><tspan
     x="706.17963"
     y="167.50902"
     font-size="18"
     id="tspan4086"
     style="font-size:18px;font-family:LiberationSans">based on our </tspan><tspan
     x="706.17963"
     y="187.50902"
     font-size="18"
     id="tspan4088"
     style="font-size:18px;font-family:LiberationSans">beliefs</tspan></text>

<rect
   x="330.67963"
   y="704.466"
   width="110"
   height="60"
   id="rect4092"
   style="fill:none" />
<text
   id="text4100"
   x="330.67963"
   y="717.50903"><tspan
     x="330.67963"
     y="717.50903"
     font-size="18"
     id="tspan4094"
     style="font-size:18px;font-family:LiberationSans;fill:#9999cc">Model by </tspan><tspan
     x="330.67963"
     y="737.50903"
     font-size="18"
     id="tspan4096"
     style="font-size:18px;font-family:LiberationSans;fill:#9999cc">Chris Argyris </tspan><tspan
     x="330.67963"
     y="757.50903"
     font-size="18"
     id="tspan4098"
     style="font-size:18px;font-family:LiberationSans;fill:#9999cc">(1923–2013)</tspan></text>

<rect
   x="360.67963"
   y="27.646019"
   width="500"
   height="40"
   id="rect4102"
   style="fill:none" />
<text
   font-size="36"
   id="text4104"
   style="font-size:36px;font-family:LiberationSans-Bold"
   x="388.57462"
   y="53.731621">LADDER OF INFERENCE</text>

</svg>